<svg xmlns="http://www.w3.org/2000/svg" width="29.603" height="18.559" viewBox="0 0 29.603 18.559">
    <path id="behance-brands_1_" data-name="behance-brands (1)" d="M11.923,83.716a3.9,3.9,0,0,0,2.487-3.8c0-3.628-2.7-4.512-5.823-4.512H0V93.614H8.829c3.31,0,6.419-1.588,6.419-5.289A4.389,4.389,0,0,0,11.923,83.716ZM4,78.509H7.76c1.444,0,2.744.406,2.744,2.081,0,1.547-1.012,2.169-2.441,2.169H4v-4.25ZM8.285,90.52H4V85.5H8.367c1.763,0,2.878.735,2.878,2.6C11.245,89.945,9.914,90.52,8.285,90.52ZM26.709,78.15H19.324V76.356h7.385ZM29.6,87.211c0-3.9-2.282-7.154-6.419-7.154a6.628,6.628,0,0,0-6.748,6.979c0,4.106,2.585,6.923,6.748,6.923a5.879,5.879,0,0,0,6.172-4.435h-3.2A3,3,0,0,1,23.3,91.245c-2.123,0-3.238-1.244-3.238-3.356h9.513C29.587,87.673,29.6,87.442,29.6,87.211Zm-9.539-1.6a2.831,2.831,0,0,1,3.007-2.816c1.819,0,2.734,1.069,2.888,2.816Z" transform="translate(0 -75.4)" fill="#13123e"/>
</svg>