<svg xmlns="http://www.w3.org/2000/svg" width="18.644" height="18.644" viewBox="0 0 18.644 18.644">
    <path id="dribbble-brands" d="M17.322,8a9.322,9.322,0,1,0,9.322,9.322A9.332,9.332,0,0,0,17.322,8Zm6.163,4.3a7.924,7.924,0,0,1,1.8,4.96A18.607,18.607,0,0,0,19.739,17c-.216-.528-.42-.992-.7-1.564A10.606,10.606,0,0,0,23.485,12.3Zm-.885-.921a8.99,8.99,0,0,1-4.173,2.876,42.5,42.5,0,0,0-2.971-4.661A7.942,7.942,0,0,1,22.6,11.378Zm-8.663-1.25a50.8,50.8,0,0,1,2.952,4.6,29.7,29.7,0,0,1-7.361.97A7.991,7.991,0,0,1,13.937,10.128ZM9.36,17.334c0-.081,0-.162,0-.243a29.371,29.371,0,0,0,8.183-1.133c.228.446.446.9.646,1.351a12.333,12.333,0,0,0-6.786,5.349A7.93,7.93,0,0,1,9.36,17.334Zm3.075,6.281a11.2,11.2,0,0,1,6.3-4.99,33.1,33.1,0,0,1,1.7,6.038A7.946,7.946,0,0,1,12.434,23.616Zm9.336.319a34.366,34.366,0,0,0-1.547-5.677,11.687,11.687,0,0,1,4.96.34A7.976,7.976,0,0,1,21.771,23.935Z" transform="translate(-8 -8)" fill="#13123e"/>
</svg>