<svg id="github-link" xmlns="http://www.w3.org/2000/svg" width="18.872" height="18.401" viewBox="0 0 18.872 18.401">
    <path id="github-brands" d="M6.312,22.816c0,.076-.088.137-.2.137-.126.011-.213-.049-.213-.137s.088-.137.2-.137S6.312,22.729,6.312,22.816Zm-1.183-.171c-.027.076.049.164.164.186a.178.178,0,0,0,.236-.076c.023-.076-.049-.164-.164-.2A.2.2,0,0,0,5.129,22.645Zm1.682-.065c-.11.027-.186.1-.175.186s.11.126.224.1.186-.1.175-.175S6.921,22.569,6.811,22.58ZM9.314,8A9.124,9.124,0,0,0,0,17.284a9.539,9.539,0,0,0,6.449,9.1c.487.088.658-.213.658-.46S7.1,24.388,7.1,23.589c0,0-2.663.571-3.223-1.134,0,0-.434-1.107-1.058-1.393,0,0-.871-.6.061-.586a2.008,2.008,0,0,1,1.469.982,2.011,2.011,0,0,0,2.774.8,2.115,2.115,0,0,1,.609-1.282c-2.127-.236-4.273-.544-4.273-4.2a2.884,2.884,0,0,1,.9-2.241,3.6,3.6,0,0,1,.1-2.584c.8-.247,2.625,1.027,2.625,1.027a8.988,8.988,0,0,1,4.779,0s1.83-1.278,2.625-1.027a3.593,3.593,0,0,1,.1,2.584,2.958,2.958,0,0,1,.982,2.241c0,3.672-2.241,3.965-4.368,4.2a2.25,2.25,0,0,1,.647,1.765c0,1.282-.011,2.869-.011,3.181,0,.247.175.548.658.46a9.451,9.451,0,0,0,6.384-9.094A9.329,9.329,0,0,0,9.314,8ZM3.7,21.123c-.049.038-.038.126.027.2s.148.088.2.038.038-.126-.027-.2S3.748,21.074,3.7,21.123Zm-.411-.308c-.027.049.011.11.088.148a.113.113,0,0,0,.164-.027c.027-.049-.011-.11-.088-.148C3.375,20.765,3.314,20.777,3.287,20.815ZM4.52,22.169c-.061.049-.038.164.049.236.088.088.2.1.247.038s.027-.164-.049-.236C4.684,22.12,4.57,22.108,4.52,22.169Zm-.434-.559c-.061.038-.061.137,0,.224s.164.126.213.088a.174.174,0,0,0,0-.236c-.053-.088-.152-.126-.213-.076Z" transform="translate(0 -8)" fill="#13123e"/>
</svg>