<svg id="instagram-link" xmlns="http://www.w3.org/2000/svg" width="18.224" height="18.22" viewBox="0 0 18.224 18.22">
    <path id="instagram-brands" d="M9.039,36.264a4.671,4.671,0,1,0,4.671,4.671A4.664,4.664,0,0,0,9.039,36.264Zm0,7.708a3.037,3.037,0,1,1,3.037-3.037,3.042,3.042,0,0,1-3.037,3.037Zm5.952-7.9a1.09,1.09,0,1,1-1.09-1.09A1.087,1.087,0,0,1,14.991,36.073Zm3.094,1.106a5.392,5.392,0,0,0-1.472-3.818A5.427,5.427,0,0,0,12.8,31.889c-1.5-.085-6.013-.085-7.517,0a5.42,5.42,0,0,0-3.818,1.468A5.41,5.41,0,0,0-.011,37.174c-.085,1.5-.085,6.013,0,7.517a5.392,5.392,0,0,0,1.472,3.818,5.434,5.434,0,0,0,3.818,1.472c1.5.085,6.013.085,7.517,0a5.392,5.392,0,0,0,3.818-1.472,5.428,5.428,0,0,0,1.472-3.818C18.17,43.187,18.17,38.683,18.085,37.178Zm-1.943,9.127a3.075,3.075,0,0,1-1.732,1.732c-1.2.476-4.045.366-5.371.366s-4.175.106-5.371-.366a3.075,3.075,0,0,1-1.732-1.732c-.476-1.2-.366-4.045-.366-5.371s-.106-4.175.366-5.371a3.075,3.075,0,0,1,1.732-1.732c1.2-.476,4.045-.366,5.371-.366s4.175-.106,5.371.366a3.075,3.075,0,0,1,1.732,1.732c.476,1.2.366,4.045.366,5.371S16.617,45.11,16.141,46.306Z" transform="translate(0.075 -31.825)" fill="#13123e"/>
</svg>