                    <svg xmlns="http://www.w3.org/2000/svg" width="18.22" height="18.22" viewBox="0 0 18.22 18.22">
                        <path id="spotify-brands" d="M9.11,8a9.11,9.11,0,1,0,9.11,9.11A9.113,9.113,0,0,0,9.11,8Zm3.7,13.4a.7.7,0,0,1-.393-.132,10.367,10.367,0,0,0-7.593-.9,2.372,2.372,0,0,1-.437.1.572.572,0,0,1-.58-.58.582.582,0,0,1,.5-.617,11.726,11.726,0,0,1,8.706.962.621.621,0,0,1,.356.606A.555.555,0,0,1,12.809,21.4Zm.988-2.41a.907.907,0,0,1-.452-.154,11.9,11.9,0,0,0-8.765-1.08,1.513,1.513,0,0,1-.437.1.713.713,0,0,1-.713-.713A.723.723,0,0,1,4,16.383a12.355,12.355,0,0,1,3.592-.5,12.858,12.858,0,0,1,6.5,1.671.766.766,0,0,1,.415.724A.712.712,0,0,1,13.8,18.994Zm1.139-2.8a.845.845,0,0,1-.474-.143c-2.615-1.561-7.292-1.936-10.318-1.091a1.745,1.745,0,0,1-.474.1.848.848,0,0,1-.856-.867.868.868,0,0,1,.639-.878,15.4,15.4,0,0,1,4.316-.558,15.514,15.514,0,0,1,7.545,1.756.862.862,0,0,1,.474.83A.851.851,0,0,1,14.936,16.2Z" transform="translate(0 -8)" fill="#13123e"/>
                    </svg>