                    <svg id="twitter-link" xmlns="http://www.w3.org/2000/svg" width="22.255" height="18.075" viewBox="0 0 22.255 18.075">
                        <path id="twitter-brands" d="M19.967,52.587c.014.2.014.4.014.593A12.888,12.888,0,0,1,7,66.157,12.889,12.889,0,0,1,0,64.11a9.434,9.434,0,0,0,1.1.056,9.134,9.134,0,0,0,5.663-1.949A4.569,4.569,0,0,1,2.5,59.054a5.752,5.752,0,0,0,.861.071,4.824,4.824,0,0,0,1.2-.155A4.562,4.562,0,0,1,.9,54.493v-.056a4.593,4.593,0,0,0,2.062.579,4.568,4.568,0,0,1-1.412-6.1,12.965,12.965,0,0,0,9.4,4.773,5.149,5.149,0,0,1-.113-1.045,4.565,4.565,0,0,1,7.894-3.121,8.98,8.98,0,0,0,2.895-1.1,4.549,4.549,0,0,1-2.005,2.514,9.143,9.143,0,0,0,2.626-.706A9.8,9.8,0,0,1,19.967,52.587Z" transform="translate(0 -48.082)" fill="#13123e"/>
                    </svg>