<svg xmlns="http://www.w3.org/2000/svg" width="38.351" height="38.355" viewBox="0 0 38.351 38.355">
  <path id="Path_51" data-name="Path 51" d="M39.012,17.5A5.753,5.753,0,0,0,34.6,15.424H25.857l1.074-2.742A7.92,7.92,0,0,0,19.471,2a1.918,1.918,0,0,0-1.745,1.131L12.26,15.424H7.753A5.753,5.753,0,0,0,2,21.177V34.6a5.753,5.753,0,0,0,5.753,5.753H32.166a5.753,5.753,0,0,0,5.657-4.718l2.436-13.424A5.753,5.753,0,0,0,39.012,17.5ZM11.589,36.519H7.753A1.918,1.918,0,0,1,5.835,34.6V21.177A1.918,1.918,0,0,1,7.753,19.26h3.835Zm24.93-15L34.084,34.947a1.918,1.918,0,0,1-1.918,1.573H15.424V17.745L20.64,6.008a4.046,4.046,0,0,1,2.646,5.331L22.27,14.082a3.835,3.835,0,0,0,3.586,5.178H34.6a1.957,1.957,0,0,1,1.918,2.263Z" transform="translate(-2 -2)" fill="#a5ccb1"/>
</svg>
