<svg xmlns="http://www.w3.org/2000/svg" width="108.13" height="23.181" viewBox="0 0 108.13 23.181">
  <g id="Group_212" data-name="Group 212" transform="translate(-135.457 -740.239)">
    <g id="Group_6" data-name="Group 6" transform="translate(172.627 740.739)">
      <path id="Union_2" data-name="Union 2" d="M3.579,17.016A5.871,5.871,0,0,1,1.719,15.9,5.15,5.15,0,0,1,0,12.006a5.328,5.328,0,0,1,.226-1.555A5.175,5.175,0,0,1,.868,9.087a5.334,5.334,0,0,1,1.008-1.12,6.014,6.014,0,0,1,.8-.569A4.17,4.17,0,0,1,1.732,6.3,3.894,3.894,0,0,1,1.2,4.268a4.029,4.029,0,0,1,.375-1.734A4.13,4.13,0,0,1,2.589,1.18,4.715,4.715,0,0,1,4.065.311a5.268,5.268,0,0,1,3.566,0A4.645,4.645,0,0,1,9.1,1.182a4.066,4.066,0,0,1,1.372,3.087.859.859,0,0,1-.193.565A.78.78,0,0,1,9.65,5.1H9.339a.869.869,0,0,1-.674-.249.837.837,0,0,1-.209-.582,2.4,2.4,0,0,0-.193-.983,2.181,2.181,0,0,0-.532-.738,2.357,2.357,0,0,0-.819-.471,3.281,3.281,0,0,0-1.069-.169,3.28,3.28,0,0,0-1.069.169,2.481,2.481,0,0,0-.834.475,2.244,2.244,0,0,0-.554.741,2.286,2.286,0,0,0-.2.977,2.211,2.211,0,0,0,.19.949,2.057,2.057,0,0,0,.523.689,2.386,2.386,0,0,0,.8.443,3.922,3.922,0,0,0,1.045.192h.106a.921.921,0,0,1,.58.186A.746.746,0,0,1,6.7,7.35v.244a.812.812,0,0,1-.258.652.9.9,0,0,1-.6.2,4.282,4.282,0,0,0-1.515.265A3.821,3.821,0,0,0,3.1,9.448a3.452,3.452,0,0,0-.82,1.12,3.348,3.348,0,0,0-.3,1.417,3.26,3.26,0,0,0,.3,1.408,3.442,3.442,0,0,0,.821,1.1,3.727,3.727,0,0,0,1.221.718,4.459,4.459,0,0,0,1.522.256,3.877,3.877,0,0,0,1.463-.284A4.159,4.159,0,0,0,8.56,14.4a4.069,4.069,0,0,0,.88-1.155,3.321,3.321,0,0,0,.334-1.07q-.108-.044-.207-.078a2.217,2.217,0,0,0-.706-.139,1.507,1.507,0,0,0-.63.126,1.594,1.594,0,0,0-.58.555,1.831,1.831,0,0,1-.731.592,1.048,1.048,0,0,1-.907-.038.818.818,0,0,1-.429-.655,1.18,1.18,0,0,1,.2-.882A3.775,3.775,0,0,1,7.21,10.371a3.98,3.98,0,0,1,1.828-.429,3.589,3.589,0,0,1,1.424.265q.618.265,1.046.492a9.093,9.093,0,0,0,.882.454,1.622,1.622,0,0,0,.63.126,1.279,1.279,0,0,0,.58-.126,1.632,1.632,0,0,0,.429-.3,2.219,2.219,0,0,1,.681-.492.906.906,0,0,1,.807.139.87.87,0,0,1,.416.731,1.245,1.245,0,0,1-.29.908A3.109,3.109,0,0,1,13.1,13.32a3.7,3.7,0,0,1-1.454-.263,5.271,5.271,0,0,1-.484,1.212A6.021,6.021,0,0,1,9.844,15.9a6.232,6.232,0,0,1-1.829,1.105,5.883,5.883,0,0,1-2.166.408A6.412,6.412,0,0,1,3.579,17.016Z" transform="translate(0 0)" fill="#13123e" stroke="rgba(0,0,0,0)" stroke-miterlimit="10" stroke-width="1"/>
    </g>
    <path id="Path_18" data-name="Path 18" d="M15.635,130.588a2.955,2.955,0,0,1-1.2-.223q-.507-.223-.873-.406a5.194,5.194,0,0,0-.771-.355,1.784,1.784,0,0,0-.568-.112,1.214,1.214,0,0,0-.507.1,1.283,1.283,0,0,0-.467.447,1.474,1.474,0,0,1-.589.477.844.844,0,0,1-.731-.03.659.659,0,0,1-.345-.528.95.95,0,0,1,.162-.71,3.039,3.039,0,0,1,1.147-1.035,3.2,3.2,0,0,1,1.471-.345,2.889,2.889,0,0,1,1.147.213q.5.213.842.4a7.328,7.328,0,0,0,.71.365,1.306,1.306,0,0,0,.507.1,1.03,1.03,0,0,0,.467-.1,1.313,1.313,0,0,0,.345-.244,1.788,1.788,0,0,1,.548-.4.729.729,0,0,1,.649.112.7.7,0,0,1,.335.589,1,1,0,0,1-.233.731A2.5,2.5,0,0,1,15.635,130.588Z" transform="translate(125.884 622.852)" fill="#f7c776"/>
    <path id="Path_17" data-name="Path 17" d="M15.635,130.588a2.955,2.955,0,0,1-1.2-.223q-.507-.223-.873-.406a5.194,5.194,0,0,0-.771-.355,1.784,1.784,0,0,0-.568-.112,1.214,1.214,0,0,0-.507.1,1.283,1.283,0,0,0-.467.447,1.474,1.474,0,0,1-.589.477.844.844,0,0,1-.731-.03.659.659,0,0,1-.345-.528.95.95,0,0,1,.162-.71,3.039,3.039,0,0,1,1.147-1.035,3.2,3.2,0,0,1,1.471-.345,2.889,2.889,0,0,1,1.147.213q.5.213.842.4a7.328,7.328,0,0,0,.71.365,1.306,1.306,0,0,0,.507.1,1.03,1.03,0,0,0,.467-.1,1.313,1.313,0,0,0,.345-.244,1.788,1.788,0,0,1,.548-.4.729.729,0,0,1,.649.112.7.7,0,0,1,.335.589,1,1,0,0,1-.233.731A2.5,2.5,0,0,1,15.635,130.588Z" transform="translate(225.666 622.852)" fill="#bad6d4"/>
    <path id="Path_16" data-name="Path 16" d="M37.313-229.254a5.52,5.52,0,0,1-2.961-.793,5.575,5.575,0,0,1-2.022-2.19,6.765,6.765,0,0,1-.737-3.207,6.424,6.424,0,0,1,.793-3.229,5.75,5.75,0,0,1,2.179-2.19,6.317,6.317,0,0,1,3.2-.793,6.272,6.272,0,0,1,3.173.793,5.75,5.75,0,0,1,2.179,2.19,6.424,6.424,0,0,1,.793,3.229H42.586a7.223,7.223,0,0,1-.682,3.207,5.441,5.441,0,0,1-1.866,2.19A4.784,4.784,0,0,1,37.313-229.254Zm.4,4.983a7.137,7.137,0,0,1-2.972-.626,6.251,6.251,0,0,1-2.346-1.832.951.951,0,0,1-.212-.782,1,1,0,0,1,.436-.648,1.073,1.073,0,0,1,.838-.179,1.139,1.139,0,0,1,.7.447,4.12,4.12,0,0,0,1.52,1.184,4.888,4.888,0,0,0,2.078.425,3.936,3.936,0,0,0,1.978-.514,3.694,3.694,0,0,0,1.441-1.52,5.168,5.168,0,0,0,.536-2.458v-3.173l.737-1.966,1.452.469v4.827a6.613,6.613,0,0,1-.782,3.207,5.962,5.962,0,0,1-2.179,2.29A6.091,6.091,0,0,1,37.715-224.271Zm.045-6.994a3.918,3.918,0,0,0,2.056-.536,3.75,3.75,0,0,0,1.4-1.475,4.52,4.52,0,0,0,.5-2.168,4.586,4.586,0,0,0-.5-2.179,3.731,3.731,0,0,0-1.4-1.486,3.918,3.918,0,0,0-2.056-.536,3.918,3.918,0,0,0-2.056.536,3.81,3.81,0,0,0-1.408,1.486,4.505,4.505,0,0,0-.514,2.179,4.44,4.44,0,0,0,.514,2.168A3.831,3.831,0,0,0,35.7-231.8,3.918,3.918,0,0,0,37.76-231.266Zm9.717-5.721a4.459,4.459,0,0,1,.659-2.4,4.832,4.832,0,0,1,1.777-1.687,4.945,4.945,0,0,1,2.458-.626,3.672,3.672,0,0,1,2,.436.921.921,0,0,1,.5,1.039.858.858,0,0,1-.257.48.887.887,0,0,1-.436.212,1.323,1.323,0,0,1-.536-.022,6.264,6.264,0,0,0-2.57-.045,3.48,3.48,0,0,0-1.8.916,2.322,2.322,0,0,0-.659,1.7Zm.022,7.642a1.145,1.145,0,0,1-.827-.279,1.112,1.112,0,0,1-.29-.838v-9.989a1.118,1.118,0,0,1,.29-.827,1.118,1.118,0,0,1,.827-.29,1.138,1.138,0,0,1,.838.279,1.138,1.138,0,0,1,.279.838v9.989a1.145,1.145,0,0,1-.279.827A1.112,1.112,0,0,1,47.5-229.344Zm23.936,5.229a1.106,1.106,0,0,1-.816-.324,1.106,1.106,0,0,1-.324-.816v-10.19a6.45,6.45,0,0,1,.827-3.173,5.975,5.975,0,0,1,2.19-2.223,6.05,6.05,0,0,1,3.128-.816,6.093,6.093,0,0,1,3.151.816,6.06,6.06,0,0,1,2.2,2.223,6.213,6.213,0,0,1,.816,3.173,6.587,6.587,0,0,1-.749,3.162,5.8,5.8,0,0,1-2.045,2.212,5.381,5.381,0,0,1-2.927.816,5.39,5.39,0,0,1-2.425-.547,5.75,5.75,0,0,1-1.888-1.486v6.033a1.127,1.127,0,0,1-.313.816A1.1,1.1,0,0,1,71.436-224.115Zm5.006-7.151a3.815,3.815,0,0,0,2.033-.547,3.976,3.976,0,0,0,1.419-1.5,4.335,4.335,0,0,0,.525-2.134,4.381,4.381,0,0,0-.525-2.156,3.976,3.976,0,0,0-1.419-1.5,3.814,3.814,0,0,0-2.033-.547,3.831,3.831,0,0,0-2.022.547A3.865,3.865,0,0,0,73-237.6a4.458,4.458,0,0,0-.514,2.156A4.411,4.411,0,0,0,73-233.31a3.866,3.866,0,0,0,1.419,1.5A3.831,3.831,0,0,0,76.441-231.266Zm9.784-2.525a1.106,1.106,0,0,1-.816-.324,1.106,1.106,0,0,1-.324-.816v-10.726a1.1,1.1,0,0,1,.324-.827,1.127,1.127,0,0,1,.816-.313,1.118,1.118,0,0,1,.827.313,1.118,1.118,0,0,1,.313.827v10.726a1.127,1.127,0,0,1-.313.816A1.1,1.1,0,0,1,86.226-233.791Zm9.184,4.469a1.106,1.106,0,0,1-.816-.324,1.106,1.106,0,0,1-.324-.816v-5.5a4.088,4.088,0,0,0-.469-2.078,2.955,2.955,0,0,0-1.263-1.2,4.068,4.068,0,0,0-1.821-.391,3.745,3.745,0,0,0-1.7.38,3.175,3.175,0,0,0-1.207,1.017,2.485,2.485,0,0,0-.447,1.464H85.957a4.694,4.694,0,0,1,.682-2.514,4.92,4.92,0,0,1,1.866-1.754,5.447,5.447,0,0,1,2.659-.648,5.7,5.7,0,0,1,2.76.659,4.755,4.755,0,0,1,1.922,1.933,6.391,6.391,0,0,1,.7,3.128v5.5a1.106,1.106,0,0,1-.324.816A1.106,1.106,0,0,1,95.41-229.321Zm-9.184,0a1.106,1.106,0,0,1-.816-.324,1.106,1.106,0,0,1-.324-.816v-9.966a1.1,1.1,0,0,1,.324-.827,1.127,1.127,0,0,1,.816-.313,1.118,1.118,0,0,1,.827.313,1.118,1.118,0,0,1,.313.827v9.966a1.127,1.127,0,0,1-.313.816A1.1,1.1,0,0,1,86.226-229.321Zm13.859-.022a1.106,1.106,0,0,1-.816-.324,1.106,1.106,0,0,1-.324-.816v-9.944a1.1,1.1,0,0,1,.324-.827,1.127,1.127,0,0,1,.816-.313,1.118,1.118,0,0,1,.827.313,1.118,1.118,0,0,1,.313.827v9.944a1.127,1.127,0,0,1-.313.816A1.1,1.1,0,0,1,100.085-229.344Zm0-14.212a1.419,1.419,0,0,1-1.039-.436,1.419,1.419,0,0,1-.436-1.039,1.419,1.419,0,0,1,.436-1.039,1.419,1.419,0,0,1,1.039-.436,1.419,1.419,0,0,1,1.039.436,1.419,1.419,0,0,1,.436,1.039,1.419,1.419,0,0,1-.436,1.039A1.419,1.419,0,0,1,100.085-243.556Zm9.8,14.3a6.2,6.2,0,0,1-3.184-.816,5.889,5.889,0,0,1-2.19-2.212,6.288,6.288,0,0,1-.793-3.162,6.514,6.514,0,0,1,.782-3.218,5.7,5.7,0,0,1,2.145-2.2,6.1,6.1,0,0,1,3.128-.793,5.714,5.714,0,0,1,2.413.5,5.8,5.8,0,0,1,1.966,1.508.8.8,0,0,1,.223.737,1.166,1.166,0,0,1-.492.67.849.849,0,0,1-.693.145,1.361,1.361,0,0,1-.693-.391,3.592,3.592,0,0,0-2.726-1.162,3.82,3.82,0,0,0-2.011.525,3.643,3.643,0,0,0-1.363,1.464,4.705,4.705,0,0,0-.492,2.212,4.472,4.472,0,0,0,.5,2.145,3.831,3.831,0,0,0,1.4,1.486,3.9,3.9,0,0,0,2.078.547,4.5,4.5,0,0,0,1.374-.19,3.281,3.281,0,0,0,1.084-.592,1.355,1.355,0,0,1,.737-.324.88.88,0,0,1,.67.212,1.069,1.069,0,0,1,.425.7.828.828,0,0,1-.268.7A5.677,5.677,0,0,1,109.881-229.254Z" transform="translate(116.639 987.535)" fill="#13123e"/>
  </g>
</svg>
