<svg xmlns="http://www.w3.org/2000/svg" width="95.596" height="60.5" viewBox="0 0 95.596 60.5">
    <g id="Group_13" data-name="Group 13" transform="translate(-287.491 -196)">
    <path id="Emma_Selfportrait_zw_square" d="M57.249,61.548c17.021,0,39.961,1.821,39.961,19.8s-9.058,34.6-27.446,38.428-41.479,4.752-41.479-13.23S40.228,61.548,57.249,61.548Z" transform="translate(273.354 134.452)" fill="#f3f0eb"/>
    <path id="Path_16" data-name="Path 16" d="M14.871,130.245a2.583,2.583,0,0,1-1.047-.2q-.443-.2-.763-.355a4.538,4.538,0,0,0-.674-.31,1.56,1.56,0,0,0-.5-.1,1.06,1.06,0,0,0-.443.089,1.122,1.122,0,0,0-.408.39,1.288,1.288,0,0,1-.514.417.737.737,0,0,1-.639-.027.576.576,0,0,1-.3-.461.83.83,0,0,1,.142-.621,2.656,2.656,0,0,1,1-.9,2.8,2.8,0,0,1,1.286-.3,2.525,2.525,0,0,1,1,.186q.435.186.736.346a6.408,6.408,0,0,0,.621.319,1.142,1.142,0,0,0,.443.089.9.9,0,0,0,.408-.089,1.148,1.148,0,0,0,.3-.213,1.563,1.563,0,0,1,.479-.346.637.637,0,0,1,.568.1.612.612,0,0,1,.293.514.876.876,0,0,1-.2.639A2.188,2.188,0,0,1,14.871,130.245Z" transform="translate(277.918 94.536)" fill="#f7c776"/>
    <path id="Path_17" data-name="Path 17" d="M14.871,130.245a2.583,2.583,0,0,1-1.047-.2q-.443-.2-.763-.355a4.538,4.538,0,0,0-.674-.31,1.56,1.56,0,0,0-.5-.1,1.06,1.06,0,0,0-.443.089,1.122,1.122,0,0,0-.408.39,1.288,1.288,0,0,1-.514.417.737.737,0,0,1-.639-.027.576.576,0,0,1-.3-.461.83.83,0,0,1,.142-.621,2.656,2.656,0,0,1,1-.9,2.8,2.8,0,0,1,1.286-.3,2.525,2.525,0,0,1,1,.186q.435.186.736.346a6.408,6.408,0,0,0,.621.319,1.142,1.142,0,0,0,.443.089.9.9,0,0,0,.408-.089,1.148,1.148,0,0,0,.3-.213,1.563,1.563,0,0,1,.479-.346.637.637,0,0,1,.568.1.612.612,0,0,1,.293.514.876.876,0,0,1-.2.639A2.188,2.188,0,0,1,14.871,130.245Z" transform="translate(366.219 94.536)" fill="#bad6d4"/>
    <g id="Group_4" data-name="Group 4" transform="translate(299.515 216.027)">
        <path id="Path_11" data-name="Path 11" d="M45.115-236.352a7.528,7.528,0,0,1-3.022-.608,7.512,7.512,0,0,1-2.453-1.7A7.881,7.881,0,0,1,38-241.2a8.332,8.332,0,0,1-.588-3.152A8.2,8.2,0,0,1,38-247.472a7.908,7.908,0,0,1,1.636-2.533,7.673,7.673,0,0,1,2.443-1.705,7.4,7.4,0,0,1,3.032-.618,7.813,7.813,0,0,1,2.643.4,7.6,7.6,0,0,1,2.224,1.316,1.105,1.105,0,0,1,.249.249.756.756,0,0,1,.12.259,1.392,1.392,0,0,1,.03.309.851.851,0,0,1-.269.638.99.99,0,0,1-.658.279,1.036,1.036,0,0,1-.728-.259,5.918,5.918,0,0,0-1.526-.977,5.349,5.349,0,0,0-2.084-.339,5.22,5.22,0,0,0-2.214.479,5.848,5.848,0,0,0-1.825,1.316,6.077,6.077,0,0,0-1.227,1.945,6.355,6.355,0,0,0-.439,2.364,6.409,6.409,0,0,0,.439,2.384,6.078,6.078,0,0,0,1.227,1.945,5.714,5.714,0,0,0,1.825,1.307,5.314,5.314,0,0,0,2.214.469,5.316,5.316,0,0,0,1.925-.349,7.423,7.423,0,0,0,1.745-.967,1.048,1.048,0,0,1,.708-.229.9.9,0,0,1,.588.279.953.953,0,0,1,.239.688,1.117,1.117,0,0,1-.07.389.874.874,0,0,1-.249.349,7.335,7.335,0,0,1-2.294,1.307A7.858,7.858,0,0,1,45.115-236.352Zm5.206-2.473-1.995-.4v-3.57H45.574a1.087,1.087,0,0,1-.738-.259.833.833,0,0,1-.3-.658.833.833,0,0,1,.3-.658,1.087,1.087,0,0,1,.738-.259H49.3a.979.979,0,0,1,.738.289,1.032,1.032,0,0,1,.279.748Zm2.627-4.548a3.98,3.98,0,0,1,.588-2.144,4.313,4.313,0,0,1,1.586-1.506,4.414,4.414,0,0,1,2.194-.559,3.278,3.278,0,0,1,1.785.389.822.822,0,0,1,.449.928.766.766,0,0,1-.229.429.792.792,0,0,1-.389.189,1.181,1.181,0,0,1-.479-.02,5.591,5.591,0,0,0-2.294-.04,3.106,3.106,0,0,0-1.606.818,2.073,2.073,0,0,0-.588,1.516Zm.02,6.822a1.022,1.022,0,0,1-.738-.249.992.992,0,0,1-.259-.748v-8.916a1,1,0,0,1,.259-.738,1,1,0,0,1,.738-.259,1.016,1.016,0,0,1,.748.249,1.016,1.016,0,0,1,.249.748v8.916a1.022,1.022,0,0,1-.249.738A.992.992,0,0,1,52.969-236.551Zm20.505,4.668a.987.987,0,0,1-.728-.289.987.987,0,0,1-.289-.728V-242a5.758,5.758,0,0,1,.738-2.832,5.333,5.333,0,0,1,1.955-1.985,5.4,5.4,0,0,1,2.793-.728,5.439,5.439,0,0,1,2.812.728,5.409,5.409,0,0,1,1.965,1.985A5.546,5.546,0,0,1,83.447-242a5.879,5.879,0,0,1-.668,2.822,5.174,5.174,0,0,1-1.825,1.975,4.8,4.8,0,0,1-2.613.728,4.811,4.811,0,0,1-2.164-.489,5.132,5.132,0,0,1-1.685-1.326v5.386a1.006,1.006,0,0,1-.279.728A.979.979,0,0,1,73.474-231.884Zm4.468-6.383a3.4,3.4,0,0,0,1.815-.489,3.549,3.549,0,0,0,1.267-1.336,3.87,3.87,0,0,0,.469-1.9,3.911,3.911,0,0,0-.469-1.925,3.55,3.55,0,0,0-1.267-1.336,3.4,3.4,0,0,0-1.815-.489,3.42,3.42,0,0,0-1.805.489,3.451,3.451,0,0,0-1.267,1.336A3.979,3.979,0,0,0,74.411-242a3.937,3.937,0,0,0,.459,1.9,3.45,3.45,0,0,0,1.267,1.336A3.419,3.419,0,0,0,77.942-238.267Zm16.353,1.735a.987.987,0,0,1-.728-.289.987.987,0,0,1-.289-.728v-4.907a3.649,3.649,0,0,0-.419-1.855,2.638,2.638,0,0,0-1.127-1.067,3.631,3.631,0,0,0-1.626-.349,3.342,3.342,0,0,0-1.516.339,2.834,2.834,0,0,0-1.077.908,2.218,2.218,0,0,0-.4,1.307H85.857a4.19,4.19,0,0,1,.608-2.244,4.392,4.392,0,0,1,1.666-1.566,4.863,4.863,0,0,1,2.374-.578,5.091,5.091,0,0,1,2.463.588,4.245,4.245,0,0,1,1.715,1.725,5.7,5.7,0,0,1,.628,2.793v4.907a.987.987,0,0,1-.289.728A.987.987,0,0,1,94.295-236.531Zm-8.2,0a.987.987,0,0,1-.728-.289.987.987,0,0,1-.289-.728v-8.9a.979.979,0,0,1,.289-.738,1.006,1.006,0,0,1,.728-.279,1,1,0,0,1,.738.279,1,1,0,0,1,.279.738v8.9a1.006,1.006,0,0,1-.279.728A.979.979,0,0,1,86.1-236.531Zm0-3.989a.987.987,0,0,1-.728-.289.987.987,0,0,1-.289-.728v-9.574a.979.979,0,0,1,.289-.738,1.006,1.006,0,0,1,.728-.279,1,1,0,0,1,.738.279,1,1,0,0,1,.279.738v9.574a1.006,1.006,0,0,1-.279.728A.979.979,0,0,1,86.1-240.521Zm12.111,3.969a.987.987,0,0,1-.728-.289.987.987,0,0,1-.289-.728v-8.876a.979.979,0,0,1,.289-.738,1.006,1.006,0,0,1,.728-.279,1,1,0,0,1,.738.279,1,1,0,0,1,.279.738v8.876a1.006,1.006,0,0,1-.279.728A.979.979,0,0,1,98.208-236.551Zm0-12.686a1.266,1.266,0,0,1-.928-.389,1.266,1.266,0,0,1-.389-.928,1.266,1.266,0,0,1,.389-.928,1.266,1.266,0,0,1,.928-.389,1.266,1.266,0,0,1,.928.389,1.266,1.266,0,0,1,.389.928,1.266,1.266,0,0,1-.389.928A1.266,1.266,0,0,1,98.208-249.237Zm8.354,12.766a5.531,5.531,0,0,1-2.842-.728,5.257,5.257,0,0,1-1.955-1.975,5.613,5.613,0,0,1-.708-2.822,5.815,5.815,0,0,1,.7-2.872,5.084,5.084,0,0,1,1.915-1.965,5.449,5.449,0,0,1,2.793-.708,5.1,5.1,0,0,1,2.154.449,5.181,5.181,0,0,1,1.755,1.346.718.718,0,0,1,.2.658,1.041,1.041,0,0,1-.439.6.758.758,0,0,1-.618.13,1.215,1.215,0,0,1-.618-.349,3.207,3.207,0,0,0-2.433-1.037,3.41,3.41,0,0,0-1.8.469,3.252,3.252,0,0,0-1.217,1.306,4.2,4.2,0,0,0-.439,1.975,3.992,3.992,0,0,0,.449,1.915,3.419,3.419,0,0,0,1.247,1.326,3.48,3.48,0,0,0,1.855.489,4.022,4.022,0,0,0,1.227-.17,2.93,2.93,0,0,0,.967-.529,1.21,1.21,0,0,1,.658-.289.785.785,0,0,1,.6.189.954.954,0,0,1,.379.628.739.739,0,0,1-.239.628A5.067,5.067,0,0,1,106.562-236.471Z" transform="translate(-37.416 252.329)" fill="#13123e"/>
        <path id="Path_12" data-name="Path 12" d="M25.827-227.2a4.973,4.973,0,0,1,.884-.369,3.094,3.094,0,0,1,.914-.14,3.6,3.6,0,0,1,.414.025,2.473,2.473,0,0,1,.464.1l3.272.888a1.557,1.557,0,0,0,.324.065q.165.015.314.015a1.97,1.97,0,0,0,.678-.12,2.183,2.183,0,0,0,.6-.329,2.333,2.333,0,0,0,.474-.5,1.928,1.928,0,0,0,.294-.638.377.377,0,0,1,.359-.289.461.461,0,0,1,.189.04c.336.133-.392,2.138-.658,2.344a3.209,3.209,0,0,1-.883.484,2.988,2.988,0,0,1-1.022.175q-.07,0-.219-.015t-.309-.035q-.16-.02-.294-.04a.712.712,0,0,1-.175-.04l-1.027-.269a4.5,4.5,0,0,1-.514,1.69,5.061,5.061,0,0,1-1.083,1.386,5.091,5.091,0,0,1-1.508.937,4.686,4.686,0,0,1-1.777.344,5.129,5.129,0,0,1-1.872-.339,4.776,4.776,0,0,1-1.528-.942,4.355,4.355,0,0,1-1.028-1.441,4.446,4.446,0,0,1-.374-1.835,4.592,4.592,0,0,1,.185-1.311,4.386,4.386,0,0,1,.524-1.147,4.426,4.426,0,0,1,.824-.943,5,5,0,0,1,1.073-.708,3.4,3.4,0,0,1-1.134-1.177,3.264,3.264,0,0,1-.425-1.676,3.392,3.392,0,0,1,.3-1.431,3.384,3.384,0,0,1,.814-1.117,3.773,3.773,0,0,1,1.193-.723,4.024,4.024,0,0,1,1.448-.259,4.024,4.024,0,0,1,1.448.259,3.713,3.713,0,0,1,1.188.723,3.358,3.358,0,0,1,.8,1.117,3.441,3.441,0,0,1,.295,1.431.484.484,0,0,1-.1.314.377.377,0,0,1-.312.125h-.272a.457.457,0,0,1-.357-.12.465.465,0,0,1-.106-.319,2.509,2.509,0,0,0-.194-1.007,2.258,2.258,0,0,0-.539-.768,2.343,2.343,0,0,0-.823-.489,3.086,3.086,0,0,0-1.037-.17,3.086,3.086,0,0,0-1.037.17,2.45,2.45,0,0,0-.833.489,2.31,2.31,0,0,0-.559.768,2.4,2.4,0,0,0-.2,1.007,2.334,2.334,0,0,0,.194.982,2.144,2.144,0,0,0,.534.723,2.366,2.366,0,0,0,.8.459,3.638,3.638,0,0,0,1,.189h.11a.487.487,0,0,1,.314.1.385.385,0,0,1,.125.319v.219a.45.45,0,0,1-.12.354.467.467,0,0,1-.319.1,3.935,3.935,0,0,0-1.436.259,3.613,3.613,0,0,0-1.167.723,3.394,3.394,0,0,0-.788,1.107,3.377,3.377,0,0,0-.289,1.4,3.3,3.3,0,0,0,.29,1.4,3.383,3.383,0,0,0,.789,1.087,3.527,3.527,0,0,0,1.168.708,4.085,4.085,0,0,0,1.438.249,3.594,3.594,0,0,0,1.4-.279,3.909,3.909,0,0,0,1.183-.763,3.94,3.94,0,0,0,.834-1.127,3.376,3.376,0,0,0,.35-1.381l-1.258-.329a2.628,2.628,0,0,0-.389-.03,2.9,2.9,0,0,0-.6.065,2.559,2.559,0,0,0-.634.234q-.1.05-.155.085a.361.361,0,0,1-.185.035.365.365,0,0,1-.35-.239l-.12-.249a.576.576,0,0,1-.06-.239A.387.387,0,0,1,25.827-227.2Z" transform="translate(1.858 237.338)" fill="#13123e"/>
        <path id="_-_Outline" data-name="&amp; - Outline" d="M20.85-225.864a5.464,5.464,0,0,1-1.985-.36,5.109,5.109,0,0,1-1.627-1,4.686,4.686,0,0,1-1.1-1.543,4.776,4.776,0,0,1-.4-1.963,4.925,4.925,0,0,1,.2-1.4,4.719,4.719,0,0,1,.562-1.228,4.759,4.759,0,0,1,.882-1.009,5.272,5.272,0,0,1,.7-.509,3.729,3.729,0,0,1-.824-.982,3.587,3.587,0,0,1-.467-1.833,3.718,3.718,0,0,1,.328-1.562A3.711,3.711,0,0,1,18-240.476a4.1,4.1,0,0,1,1.291-.783,4.355,4.355,0,0,1,1.56-.28,4.355,4.355,0,0,1,1.56.28,4.041,4.041,0,0,1,1.287.784,3.685,3.685,0,0,1,.878,1.22,3.767,3.767,0,0,1,.322,1.56.791.791,0,0,1-.17.51.677.677,0,0,1-.555.241H23.9a.751.751,0,0,1-.592-.225.769.769,0,0,1-.184-.526,2.211,2.211,0,0,0-.169-.883,1.958,1.958,0,0,0-.464-.663,2.044,2.044,0,0,0-.715-.423,2.789,2.789,0,0,0-.933-.152,2.789,2.789,0,0,0-.933.152,2.15,2.15,0,0,0-.728.426,2.01,2.01,0,0,0-.483.665,2.1,2.1,0,0,0-.176.878,2.036,2.036,0,0,0,.166.852,1.844,1.844,0,0,0,.456.619,2.066,2.066,0,0,0,.694.4,3.342,3.342,0,0,0,.912.173h.092a.793.793,0,0,1,.509.168.683.683,0,0,1,.242.563v.219a.745.745,0,0,1-.226.589.772.772,0,0,1-.525.182,3.642,3.642,0,0,0-1.323.238,3.319,3.319,0,0,0-1.067.661,3.1,3.1,0,0,0-.716,1.006,3.083,3.083,0,0,0-.262,1.273,3,3,0,0,0,.261,1.265,3.087,3.087,0,0,0,.717.988,3.233,3.233,0,0,0,1.066.645,3.793,3.793,0,0,0,1.329.23,3.3,3.3,0,0,0,1.278-.255,3.615,3.615,0,0,0,1.09-.7,3.647,3.647,0,0,0,.768-1.038,3.052,3.052,0,0,0,.3-1.006l-1.005-.263a2.563,2.563,0,0,0-.31-.02,2.6,2.6,0,0,0-.539.058,2.261,2.261,0,0,0-.556.207c-.058.029-.1.052-.13.071a.636.636,0,0,1-.352.084.673.673,0,0,1-.634-.422l-.117-.244a.893.893,0,0,1-.091-.375.686.686,0,0,1,.469-.646,5.143,5.143,0,0,1,.915-.38,3.421,3.421,0,0,1,1.005-.153,3.906,3.906,0,0,1,.451.027,2.794,2.794,0,0,1,.523.117l3.259.884a1.3,1.3,0,0,0,.271.055q.15.014.286.014a1.667,1.667,0,0,0,.571-.1,1.881,1.881,0,0,0,.513-.282,2.031,2.031,0,0,0,.41-.432,1.625,1.625,0,0,0,.247-.536.691.691,0,0,1,.662-.524.774.774,0,0,1,.316.067c.365.144-.3,2.652-.594,2.877a3.536,3.536,0,0,1-.968.531,3.314,3.314,0,0,1-1.128.193c-.053,0-.137-.005-.251-.017s-.208-.022-.317-.036-.209-.027-.3-.041a1.1,1.1,0,0,1-.229-.052l-.665-.174a4.826,4.826,0,0,1-.5,1.446,5.4,5.4,0,0,1-1.149,1.471,5.427,5.427,0,0,1-1.6.995A5.019,5.019,0,0,1,20.85-225.864Zm0-15.05a3.732,3.732,0,0,0-1.336.239,3.479,3.479,0,0,0-1.1.663A3.089,3.089,0,0,0,17.679-239a3.1,3.1,0,0,0-.271,1.3,2.971,2.971,0,0,0,.382,1.518,3.1,3.1,0,0,0,1.031,1.07l.472.3-.5.246a4.713,4.713,0,0,0-1.007.664,4.133,4.133,0,0,0-.766.876,4.094,4.094,0,0,0-.487,1.066,4.3,4.3,0,0,0-.172,1.223,4.156,4.156,0,0,0,.347,1.707,4.064,4.064,0,0,0,.955,1.339,4.487,4.487,0,0,0,1.429.881,4.842,4.842,0,0,0,1.759.318,4.4,4.4,0,0,0,1.66-.321,4.8,4.8,0,0,0,1.416-.88,4.773,4.773,0,0,0,1.016-1.3,4.211,4.211,0,0,0,.478-1.574l.036-.364,1.413.37.029.015a.591.591,0,0,1,.081.01q.131.019.287.039t.3.034c.086.009.148.013.188.013a2.691,2.691,0,0,0,.916-.156,2.913,2.913,0,0,0,.8-.437,3.108,3.108,0,0,0,.634-.666,2.915,2.915,0,0,0,.353-1.039l-.253-.1a.169.169,0,0,0-.073-.018c-.012,0-.034,0-.067.087a2.158,2.158,0,0,1-.331.708,2.655,2.655,0,0,1-.537.565,2.505,2.505,0,0,1-.683.376,2.29,2.29,0,0,1-.785.138q-.163,0-.342-.016a1.877,1.877,0,0,1-.389-.078l-3.261-.884a2.244,2.244,0,0,0-.419-.1,3.283,3.283,0,0,0-.378-.023,2.8,2.8,0,0,0-.822.126,4.679,4.679,0,0,0-.828.346c-.114.05-.114.075-.114.083a.272.272,0,0,0,.031.108l.118.245c.029.062.041.062.068.062a.966.966,0,0,0,.2-.087,2.873,2.873,0,0,1,.709-.261,3.223,3.223,0,0,1,.669-.072,2.939,2.939,0,0,1,.436.033l1.534.4-.01.251a3.7,3.7,0,0,1-.382,1.508,4.27,4.27,0,0,1-.9,1.216,4.238,4.238,0,0,1-1.277.824,3.922,3.922,0,0,1-1.518.3,4.415,4.415,0,0,1-1.547-.269,3.855,3.855,0,0,1-1.271-.771,3.71,3.71,0,0,1-.861-1.186,3.621,3.621,0,0,1-.318-1.527,3.7,3.7,0,0,1,.317-1.529,3.721,3.721,0,0,1,.86-1.208,3.941,3.941,0,0,1,1.267-.786,4.264,4.264,0,0,1,1.549-.281.19.19,0,0,0,.113-.027.422.422,0,0,0,.014-.119v-.219A.192.192,0,0,0,20.96-235a.188.188,0,0,0-.115-.027h-.11a3.984,3.984,0,0,1-1.1-.207,2.687,2.687,0,0,1-.9-.52,2.464,2.464,0,0,1-.611-.827A2.653,2.653,0,0,1,17.9-237.7a2.724,2.724,0,0,1,.233-1.137,2.631,2.631,0,0,1,.634-.871,2.773,2.773,0,0,1,.938-.551,3.412,3.412,0,0,1,1.142-.187,3.412,3.412,0,0,1,1.142.187,2.665,2.665,0,0,1,.931.554,2.579,2.579,0,0,1,.613.873,2.83,2.83,0,0,1,.22,1.132.186.186,0,0,0,.027.112.4.4,0,0,0,.123.015h.272a.158.158,0,0,0,.071-.01.177.177,0,0,0,.029-.116,3.147,3.147,0,0,0-.267-1.3,3.063,3.063,0,0,0-.729-1.014,3.418,3.418,0,0,0-1.089-.662A3.732,3.732,0,0,0,20.85-240.913Z" transform="translate(6.545 242.026)" fill="#13123e"/>
        <path id="_-_Outline_-_Outline" data-name="&amp; - Outline - Outline" d="M19.912-226.74A5.525,5.525,0,0,1,17.9-227.1a5.171,5.171,0,0,1-1.646-1.016,4.747,4.747,0,0,1-1.116-1.564,4.838,4.838,0,0,1-.407-1.988,4.987,4.987,0,0,1,.2-1.418,4.781,4.781,0,0,1,.569-1.244,4.82,4.82,0,0,1,.893-1.022,5.337,5.337,0,0,1,.634-.47,3.805,3.805,0,0,1-.773-.943,3.648,3.648,0,0,1-.476-1.864,3.779,3.779,0,0,1,.334-1.587,3.772,3.772,0,0,1,.9-1.239,4.163,4.163,0,0,1,1.311-.795,4.416,4.416,0,0,1,1.582-.284,4.415,4.415,0,0,1,1.582.284,4.1,4.1,0,0,1,1.307.8,3.746,3.746,0,0,1,.893,1.24,3.828,3.828,0,0,1,.328,1.585.851.851,0,0,1-.184.549.737.737,0,0,1-.6.264h-.272a.809.809,0,0,1-.638-.246.829.829,0,0,1-.2-.567,2.15,2.15,0,0,0-.164-.858,1.9,1.9,0,0,0-.45-.642,1.983,1.983,0,0,0-.693-.41,2.727,2.727,0,0,0-.912-.148,2.727,2.727,0,0,0-.912.148,2.089,2.089,0,0,0-.707.414,1.949,1.949,0,0,0-.468.645,2.043,2.043,0,0,0-.171.852,1.976,1.976,0,0,0,.16.826,1.782,1.782,0,0,0,.441.6,2,2,0,0,0,.673.386,3.28,3.28,0,0,0,.893.169h.091a.854.854,0,0,1,.548.182.742.742,0,0,1,.265.612v.219a.8.8,0,0,1-.248.636.832.832,0,0,1-.566.2,3.581,3.581,0,0,0-1.3.234,3.258,3.258,0,0,0-1.047.648,3.037,3.037,0,0,0-.7.986,3.021,3.021,0,0,0-.256,1.248,2.94,2.94,0,0,0,.255,1.24,3.026,3.026,0,0,0,.7.968,3.171,3.171,0,0,0,1.046.633,3.731,3.731,0,0,0,1.307.226,3.238,3.238,0,0,0,1.254-.25,3.554,3.554,0,0,0,1.071-.69,3.585,3.585,0,0,0,.755-1.021,2.99,2.99,0,0,0,.285-.932l-.949-.248a2.5,2.5,0,0,0-.3-.019,2.534,2.534,0,0,0-.526.057,2.2,2.2,0,0,0-.541.2h0c-.059.029-.1.051-.125.068a.694.694,0,0,1-.386.093.728.728,0,0,1-.411-.119.793.793,0,0,1-.279-.338l-.118-.245a.959.959,0,0,1-.1-.4.723.723,0,0,1,.089-.35.832.832,0,0,1,.415-.352,5.209,5.209,0,0,1,.924-.384A3.483,3.483,0,0,1,22-233.712a3.986,3.986,0,0,1,.458.027,2.853,2.853,0,0,1,.534.12l3.26.884a1.227,1.227,0,0,0,.258.053c.1.009.192.013.28.013a1.605,1.605,0,0,0,.55-.1,1.819,1.819,0,0,0,.5-.273,1.969,1.969,0,0,0,.4-.419,1.563,1.563,0,0,0,.237-.515v-.006a.88.88,0,0,1,.356-.466.7.7,0,0,1,.363-.1.836.836,0,0,1,.341.072c.071.029.115.106.134.236a2.477,2.477,0,0,1-.036.671,8.378,8.378,0,0,1-.184.857,7.666,7.666,0,0,1-.248.778,2.611,2.611,0,0,1-.124.276.525.525,0,0,1-.121.165,3.6,3.6,0,0,1-.985.54,3.376,3.376,0,0,1-1.149.2c-.058,0-.147-.006-.257-.017s-.209-.022-.318-.036-.211-.027-.3-.041a1.16,1.16,0,0,1-.239-.055L25.1-231a4.9,4.9,0,0,1-.494,1.4,5.458,5.458,0,0,1-1.162,1.488,5.488,5.488,0,0,1-1.617,1.006A5.08,5.08,0,0,1,19.912-226.74Zm0-15.675a4.293,4.293,0,0,0-1.537.276,4.04,4.04,0,0,0-1.272.771,3.65,3.65,0,0,0-.874,1.2,3.656,3.656,0,0,0-.322,1.536,3.526,3.526,0,0,0,.459,1.8,3.676,3.676,0,0,0,.81.966l.066.055-.073.045a5.224,5.224,0,0,0-.69.5,4.7,4.7,0,0,0-.87,1,4.658,4.658,0,0,0-.554,1.212,4.864,4.864,0,0,0-.2,1.383,4.715,4.715,0,0,0,.4,1.937,4.624,4.624,0,0,0,1.087,1.523,5.047,5.047,0,0,0,1.607.992,5.4,5.4,0,0,0,1.963.356,4.957,4.957,0,0,0,1.872-.362,5.364,5.364,0,0,0,1.581-.984,5.334,5.334,0,0,0,1.136-1.454,4.772,4.772,0,0,0,.493-1.428l.012-.066.733.192h0a1.049,1.049,0,0,0,.216.049c.091.014.192.027.3.041s.214.025.315.036c.134.013.207.016.244.016a3.252,3.252,0,0,0,1.107-.189,3.474,3.474,0,0,0,.951-.521,1.022,1.022,0,0,0,.205-.389,7.539,7.539,0,0,0,.244-.765c.029-.109.056-.217.08-.321a1.936,1.936,0,0,1-.19.4,3.169,3.169,0,0,1-.647.679,2.973,2.973,0,0,1-.814.446,2.752,2.752,0,0,1-.937.16c-.04,0-.1,0-.194-.014s-.2-.021-.3-.034-.2-.026-.289-.039l-.021,0-.017,0-.009.016-.075-.038-1.336-.35-.029.292a4.273,4.273,0,0,1-.485,1.6,4.834,4.834,0,0,1-1.029,1.318,4.865,4.865,0,0,1-1.434.891,4.458,4.458,0,0,1-1.683.326,4.9,4.9,0,0,1-1.781-.322,4.548,4.548,0,0,1-1.448-.893,4.126,4.126,0,0,1-.97-1.359,4.217,4.217,0,0,1-.353-1.733,4.362,4.362,0,0,1,.174-1.24,4.156,4.156,0,0,1,.494-1.082,4.2,4.2,0,0,1,.777-.889,4.775,4.775,0,0,1,1.02-.673l.4-.2-.379-.24a3.165,3.165,0,0,1-1.052-1.091,3.032,3.032,0,0,1-.39-1.549,3.159,3.159,0,0,1,.277-1.327A3.151,3.151,0,0,1,17.438-241a3.54,3.54,0,0,1,1.115-.675,3.793,3.793,0,0,1,1.359-.243,3.793,3.793,0,0,1,1.359.243,3.481,3.481,0,0,1,1.109.674,3.125,3.125,0,0,1,.744,1.035,3.208,3.208,0,0,1,.272,1.328.236.236,0,0,1-.04.152l-.008.011-.011.007a.2.2,0,0,1-.1.019h-.272a.457.457,0,0,1-.137-.016h0l.015,0v-.05l-.047.029a.231.231,0,0,1-.042-.152,2.769,2.769,0,0,0-.215-1.107,2.518,2.518,0,0,0-.6-.852,2.6,2.6,0,0,0-.91-.541,3.35,3.35,0,0,0-1.121-.184,3.35,3.35,0,0,0-1.121.184,2.711,2.711,0,0,0-.917.539,2.57,2.57,0,0,0-.619.85,2.662,2.662,0,0,0-.227,1.111,2.592,2.592,0,0,0,.217,1.087,2.4,2.4,0,0,0,.6.807,2.625,2.625,0,0,0,.881.508,3.9,3.9,0,0,0,1.081.2h.108a.266.266,0,0,1,.147.036h0l.013.007.008.013a.238.238,0,0,1,.02.111v.219a.465.465,0,0,1-.015.132h0a.061.061,0,0,0-.011-.051l-.04.031.031.054a.234.234,0,0,1-.152.041,4.2,4.2,0,0,0-1.527.276,3.88,3.88,0,0,0-1.247.773,3.659,3.659,0,0,0-.846,1.188,3.642,3.642,0,0,0-.311,1.5,3.56,3.56,0,0,0,.313,1.5,3.648,3.648,0,0,0,.847,1.167,3.793,3.793,0,0,0,1.251.758,4.354,4.354,0,0,0,1.526.265,3.86,3.86,0,0,0,1.495-.3,4.177,4.177,0,0,0,1.259-.812,4.208,4.208,0,0,0,.887-1.2,3.641,3.641,0,0,0,.376-1.483l.008-.2-1.483-.386a2.891,2.891,0,0,0-.423-.032,3.161,3.161,0,0,0-.656.07,2.8,2.8,0,0,0-.693.255h0l-.034.017a.8.8,0,0,1-.18.075l-.007,0h-.007c-.06,0-.089-.023-.124-.1l-.118-.245a.33.33,0,0,1-.037-.134c0-.053.042-.092.149-.139a4.741,4.741,0,0,1,.837-.349,2.858,2.858,0,0,1,.84-.129,3.361,3.361,0,0,1,.385.023,2.307,2.307,0,0,1,.429.1l3.262.885a1.814,1.814,0,0,0,.376.075c.117.011.23.016.337.016a2.229,2.229,0,0,0,.764-.135,2.443,2.443,0,0,0,.667-.367,2.594,2.594,0,0,0,.525-.552,2.107,2.107,0,0,0,.322-.687v-.007c.025-.066.058-.127.125-.127a.23.23,0,0,1,.1.022l.247.1a1.828,1.828,0,0,0,.007-.422c-.016-.114-.048-.135-.058-.139h0a.713.713,0,0,0-.291-.062.631.631,0,0,0-.6.481,1.686,1.686,0,0,1-.255.553,2.093,2.093,0,0,1-.423.445,1.943,1.943,0,0,1-.53.291,1.729,1.729,0,0,1-.592.1c-.092,0-.19,0-.291-.014a1.363,1.363,0,0,1-.282-.057l-3.26-.884a2.733,2.733,0,0,0-.512-.115,3.866,3.866,0,0,0-.443-.027,3.36,3.36,0,0,0-.987.151,5.081,5.081,0,0,0-.9.376H20.1a.627.627,0,0,0-.432.59.837.837,0,0,0,.085.348l.118.245a.614.614,0,0,0,.578.386.578.578,0,0,0,.319-.074c.03-.019.072-.042.135-.074a2.32,2.32,0,0,1,.571-.212,2.657,2.657,0,0,1,.552-.059,2.623,2.623,0,0,1,.318.02h.008l1.057.277-.006.053a3.118,3.118,0,0,1-.3,1.026,3.708,3.708,0,0,1-.781,1.056,3.677,3.677,0,0,1-1.108.714,3.361,3.361,0,0,1-1.3.26,3.854,3.854,0,0,1-1.351-.234,3.3,3.3,0,0,1-1.086-.658,3.149,3.149,0,0,1-.731-1.007,3.063,3.063,0,0,1-.267-1.291,3.144,3.144,0,0,1,.267-1.3,3.16,3.16,0,0,1,.73-1.026,3.381,3.381,0,0,1,1.087-.673,3.7,3.7,0,0,1,1.345-.242.712.712,0,0,0,.484-.167.686.686,0,0,0,.205-.543v-.219a.623.623,0,0,0-.219-.515.733.733,0,0,0-.471-.155h-.1a3.4,3.4,0,0,1-.929-.176,2.127,2.127,0,0,1-.714-.41,1.905,1.905,0,0,1-.472-.64,2.1,2.1,0,0,1-.172-.878,2.165,2.165,0,0,1,.182-.9,2.071,2.071,0,0,1,.5-.686,2.212,2.212,0,0,1,.749-.439,2.851,2.851,0,0,1,.953-.155,2.851,2.851,0,0,1,.953.155,2.106,2.106,0,0,1,.736.436,2.019,2.019,0,0,1,.479.684,2.272,2.272,0,0,1,.174.908.709.709,0,0,0,.168.485.692.692,0,0,0,.545.2h.272a.618.618,0,0,0,.507-.218.73.73,0,0,0,.156-.472,3.706,3.706,0,0,0-.317-1.534,3.623,3.623,0,0,0-.864-1.2,3.979,3.979,0,0,0-1.268-.772A4.293,4.293,0,0,0,19.912-242.415Zm0,.625a3.67,3.67,0,0,0-1.314.235,3.417,3.417,0,0,0-1.076.651,3.028,3.028,0,0,0-.724,1,3.036,3.036,0,0,0-.266,1.275,2.91,2.91,0,0,0,.374,1.487,3.043,3.043,0,0,0,1.011,1.049l.565.358-.6.295a4.651,4.651,0,0,0-.993.655,4.072,4.072,0,0,0-.755.863,4.033,4.033,0,0,0-.479,1.05,4.239,4.239,0,0,0-.169,1.205,4.094,4.094,0,0,0,.342,1.682,4,4,0,0,0,.94,1.319,4.425,4.425,0,0,0,1.409.869,4.78,4.78,0,0,0,1.737.314,4.335,4.335,0,0,0,1.637-.317,4.741,4.741,0,0,0,1.4-.869,4.711,4.711,0,0,0,1-1.285,4.15,4.15,0,0,0,.471-1.551l.044-.436,1.489.39.023.011.054.008.02,0c.087.013.183.026.286.039s.2.024.3.034.147.013.182.013a2.629,2.629,0,0,0,.9-.152,2.849,2.849,0,0,0,.78-.427,3.046,3.046,0,0,0,.622-.653,2.334,2.334,0,0,0,.237-.547,2.873,2.873,0,0,0,.108-.413l-.22-.088a.138.138,0,0,0-.036-.012.272.272,0,0,0-.02.043,2.236,2.236,0,0,1-.34.725,2.717,2.717,0,0,1-.55.578,2.566,2.566,0,0,1-.7.385,2.352,2.352,0,0,1-.806.142c-.111,0-.228-.006-.348-.017a1.937,1.937,0,0,1-.4-.08l-3.262-.885a2.19,2.19,0,0,0-.407-.093,3.238,3.238,0,0,0-.371-.022,2.735,2.735,0,0,0-.8.123,4.619,4.619,0,0,0-.817.341h0a.408.408,0,0,0-.076.04.3.3,0,0,0,.024.068l.118.245.012.024a.841.841,0,0,0,.137-.061l.034-.017a2.928,2.928,0,0,1,.724-.266,3.283,3.283,0,0,1,.682-.073,3.017,3.017,0,0,1,.445.034h.006l1.583.412-.012.3a3.764,3.764,0,0,1-.388,1.533,4.331,4.331,0,0,1-.913,1.233,4.3,4.3,0,0,1-1.3.836,3.984,3.984,0,0,1-1.542.308,4.477,4.477,0,0,1-1.569-.273,3.916,3.916,0,0,1-1.291-.783,3.771,3.771,0,0,1-.876-1.206,3.682,3.682,0,0,1-.324-1.553,3.765,3.765,0,0,1,.322-1.555,3.782,3.782,0,0,1,.874-1.228,4,4,0,0,1,1.286-.8,4.326,4.326,0,0,1,1.572-.285.225.225,0,0,0,.058-.006.437.437,0,0,0,.006-.078v-.219a.28.28,0,0,0,0-.037.218.218,0,0,0-.062-.008h-.113a4.019,4.019,0,0,1-1.117-.21,2.748,2.748,0,0,1-.923-.532,2.526,2.526,0,0,1-.626-.848,2.714,2.714,0,0,1-.229-1.139,2.785,2.785,0,0,1,.238-1.163,2.693,2.693,0,0,1,.649-.891,2.833,2.833,0,0,1,.958-.564,3.473,3.473,0,0,1,1.162-.191,3.473,3.473,0,0,1,1.162.191,2.726,2.726,0,0,1,.952.567,2.641,2.641,0,0,1,.627.894,2.892,2.892,0,0,1,.225,1.156.219.219,0,0,0,.006.058.443.443,0,0,0,.082.007h.272l.03,0a.2.2,0,0,0,.008-.063,3.085,3.085,0,0,0-.261-1.277,3,3,0,0,0-.715-.994,3.357,3.357,0,0,0-1.07-.65A3.67,3.67,0,0,0,19.912-241.79Z" transform="translate(7.483 242.964)" fill="#13123e"/>
    </g>
    </g>
</svg>