<svg xmlns="http://www.w3.org/2000/svg" width="38.355" height="38.357" viewBox="0 0 38.355 38.357">
  <path id="Path_37" data-name="Path 37" d="M40.355,12.049a1.918,1.918,0,0,0-.556-1.362L31.667,2.556a1.945,1.945,0,0,0-2.723,0L23.517,7.983h0L2.556,28.944A1.918,1.918,0,0,0,2,30.306v8.131a1.918,1.918,0,0,0,1.918,1.918h8.131a1.918,1.918,0,0,0,1.457-.556L34.352,18.838h0L39.8,13.506a2.282,2.282,0,0,0,.422-.633,1.918,1.918,0,0,0,0-.46,1.343,1.343,0,0,0,0-.268ZM11.263,36.519H5.835V31.092L24.879,12.049l5.427,5.427ZM33.01,14.772,27.583,9.345l2.723-2.7,5.408,5.408Z" transform="translate(-2 -2)" fill="#f7c776"/>
</svg>
